HIERARCHY
ROOT Hips
{
	OFFSET 0.000000 0.000000 0.000000 
	CHANNELS 6 Xposition Yposition Zposition Zrotation Yrotation Xrotation
	JOINT LHipJoint
	{
		OFFSET 0.000000 0.000000 0.000000 
		CHANNELS 3 Zrotation Yrotation Xrotation
		JOINT LeftUpLeg
		{
			OFFSET 1.091560 -1.614060 0.765000 
			CHANNELS 3 Zrotation Yrotation Xrotation
			JOINT LeftLeg
			{
				OFFSET 2.337500 -6.422250 0.000000 
				CHANNELS 3 Zrotation Yrotation Xrotation
				JOINT LeftFoot
				{
					OFFSET 2.492470 -6.848000 0.000000 
					CHANNELS 3 Zrotation Yrotation Xrotation
					JOINT LeftToeBase
					{
						OFFSET 0.153120 -0.420690 1.454610 
						CHANNELS 3 Zrotation Yrotation Xrotation
						End Site
						{
							OFFSET 0.000000 -0.000000 0.770460 
						}
					}
				}
			}
		}
	}
	JOINT RHipJoint
	{
		OFFSET 0.000000 0.000000 0.000000 
		CHANNELS 3 Zrotation Yrotation Xrotation
		JOINT RightUpLeg
		{
			OFFSET -0.998830 -1.614060 0.765000 
			CHANNELS 3 Zrotation Yrotation Xrotation
			JOINT RightLeg
			{
				OFFSET -2.368770 -6.508150 0.000000 
				CHANNELS 3 Zrotation Yrotation Xrotation
				JOINT RightFoot
				{
					OFFSET -2.534520 -6.963530 0.000000 
					CHANNELS 3 Zrotation Yrotation Xrotation
					JOINT RightToeBase
					{
						OFFSET -0.131560 -0.361450 1.632370 
						CHANNELS 3 Zrotation Yrotation Xrotation
						End Site
						{
							OFFSET -0.000000 -0.000000 0.849790 
						}
					}
				}
			}
		}
	}
	JOINT LowerBack
	{
		OFFSET 0.000000 0.000000 0.000000 
		CHANNELS 3 Zrotation Yrotation Xrotation
		JOINT Spine
		{
			OFFSET -0.024310 1.982420 -0.136160 
			CHANNELS 3 Zrotation Yrotation Xrotation
			JOINT Spine1
			{
				OFFSET 0.036290 1.989740 -0.029540 
				CHANNELS 3 Zrotation Yrotation Xrotation
				JOINT Neck
				{
					OFFSET 0.000000 0.000000 0.000000 
					CHANNELS 3 Zrotation Yrotation Xrotation
					JOINT Neck1
					{
						OFFSET 0.093490 1.407830 0.223330 
						CHANNELS 3 Zrotation Yrotation Xrotation
						JOINT Head
						{
							OFFSET -0.042730 1.445000 -0.064950 
							CHANNELS 3 Zrotation Yrotation Xrotation
							End Site
							{
								OFFSET -0.022510 1.446000 -0.045440 
							}
						}
					}
				}
				JOINT LeftShoulder
				{
					OFFSET 0.000000 0.000000 0.000000 
					CHANNELS 3 Zrotation Yrotation Xrotation
					JOINT LeftArm
					{
						OFFSET 3.491370 0.851260 -0.297400 
						CHANNELS 3 Zrotation Yrotation Xrotation
						JOINT LeftForeArm
						{
							OFFSET 5.060350 -0.000000 0.000000 
							CHANNELS 3 Zrotation Yrotation Xrotation
							JOINT LeftHand
							{
								OFFSET 3.147800 -0.000000 0.000000 
								CHANNELS 3 Zrotation Yrotation Xrotation
								JOINT LeftFingerBase
								{
									OFFSET 0.000000 0.000000 0.000000 
									CHANNELS 3 Zrotation Yrotation Xrotation
									JOINT LeftHandIndex1
									{
										OFFSET 0.606750 -0.000000 0.000000 
										CHANNELS 3 Zrotation Yrotation Xrotation
										End Site
										{
											OFFSET 0.489180 -0.000000 0.000000 
										}
									}
								}
								JOINT LThumb
								{
									OFFSET 0.000000 0.000000 0.000000 
									CHANNELS 3 Zrotation Yrotation Xrotation
									End Site
									{
										OFFSET 0.496640 -0.000000 0.496640 
									}
								}
							}
						}
					}
				}
				JOINT RightShoulder
				{
					OFFSET 0.000000 0.000000 0.000000 
					CHANNELS 3 Zrotation Yrotation Xrotation
					JOINT RightArm
					{
						OFFSET -3.281010 0.697070 0.007470 
						CHANNELS 3 Zrotation Yrotation Xrotation
						JOINT RightForeArm
						{
							OFFSET -5.122730 -0.000000 -0.000000 
							CHANNELS 3 Zrotation Yrotation Xrotation
							JOINT RightHand
							{
								OFFSET -3.422000 -0.000000 0.000000 
								CHANNELS 3 Zrotation Yrotation Xrotation
								JOINT RightFingerBase
								{
									OFFSET 0.000000 0.000000 0.000000 
									CHANNELS 3 Zrotation Yrotation Xrotation
									JOINT RightHandIndex1
									{
										OFFSET -0.704600 -0.000000 0.000000 
										CHANNELS 3 Zrotation Yrotation Xrotation
										End Site
										{
											OFFSET -0.568070 -0.000000 0.000000 
										}
									}
								}
								JOINT RThumb
								{
									OFFSET 0.000000 0.000000 0.000000 
									CHANNELS 3 Zrotation Yrotation Xrotation
									End Site
									{
										OFFSET -0.576740 -0.000000 0.576740 
									}
								}
							}
						}
					}
				}
			}
		}
	}
}
MOTION
Frames: 6
Frame Time: 0.008333
0.000000 15.999991 0.000000 423.161011 90.962196 428.144012 0.000000 0.000000 0.000000 -18.325100 -2.788200 -9.405900 2.334300 9.530200 27.468500 1.734100 5.111400 -27.151600 0.012900 -0.732100 -2.012100 0.000000 0.000000 0.000000 14.475300 6.707300 -4.058200 -1.111200 -6.697200 18.821301 0.299900 -14.749400 -17.283400 -0.776700 5.626800 -15.705400 -2.889000 -1.081400 -6.309400 0.680700 -1.218100 -2.919700 2.239700 -0.554200 0.603000 4.641400 3.131500 -2.661300 0.094700 4.004800 8.243400 -0.625400 2.164800 3.215300 -0.000000 0.000000 0.000000 -90.659500 -4.094600 20.799900 6.267500 -10.707600 -0.587900 -0.000000 -0.000000 10.515600 14.086700 44.556198 9.985100 -7.125000 0.000000 -0.000000 -39.238602 72.058296 -26.387899 -0.000000 0.000000 0.000000 91.189201 -0.877700 6.510300 -8.192800 13.864900 -0.997800 0.000000 0.000000 17.639601 -26.197001 32.071800 -14.640800 7.125000 -0.000000 -0.000000 3.149400 4.901500 3.411900 
0.000000 15.999991 0.000000 459.157013 90.930298 463.934998 0.000000 0.000000 0.000000 -18.469000 -2.952500 -8.887600 2.330200 9.522400 27.443501 1.702200 5.907500 -27.370701 0.007600 -0.561100 -1.541900 0.000000 0.000000 0.000000 14.409600 6.629200 -3.955500 -1.114600 -6.706900 18.849899 0.267800 -14.298500 -16.952299 -0.868600 5.942300 -16.617201 -2.761100 -0.867200 -6.419000 0.669100 -0.938600 -2.815900 2.173300 -0.420100 0.751900 4.390200 2.881900 -2.532400 0.133500 3.687700 8.145700 -0.584200 1.999400 3.141000 -0.000000 -0.000000 0.000000 -90.577301 -3.904600 21.553900 6.369600 -10.877100 -0.607000 -0.000000 -0.000000 9.727900 14.383700 45.004398 10.279100 -7.125000 0.000000 -0.000000 -39.970001 72.479698 -27.268400 -0.000000 -0.000000 0.000000 91.210800 -0.904800 6.423800 -8.207200 13.888200 -1.001300 0.000000 0.000000 17.662100 -25.515200 32.358200 -14.330100 7.125000 -0.000000 -0.000000 3.581200 5.030500 3.888800 
0.000000 15.999991 0.000000 460.227997 90.928299 465.023987 0.000000 0.000000 0.000000 -18.489201 -2.915900 -8.911800 2.326100 9.514700 27.418900 1.696700 5.898600 -27.327499 0.007600 -0.563400 -1.548200 0.000000 0.000000 0.000000 14.390600 6.611700 -3.980200 -1.118600 -6.718700 18.884600 0.202600 -13.998100 -17.363400 -0.786300 5.660700 -15.803000 -2.843100 -0.872400 -6.450500 0.702000 -0.941100 -2.764400 2.252400 -0.422900 0.824200 4.283500 2.585400 -2.641900 -0.045900 3.301800 8.146900 -0.637400 1.797300 3.154200 -0.000000 0.000000 0.000000 -90.568604 -3.955700 21.764500 6.385300 -10.903300 -0.610000 -0.000000 -0.000000 9.346000 14.327600 45.024601 10.241700 -7.125000 0.000000 -0.000000 -40.075100 72.473900 -27.341600 -0.000000 0.000000 0.000000 91.234299 -0.806300 6.136100 -8.237500 13.937100 -1.008600 0.000000 0.000000 18.025999 -25.420099 32.375801 -14.278100 7.125000 -0.000000 -0.000000 3.637400 5.025600 3.949800 
0.000000 15.999991 0.000000 468.243011 91.113800 473.174988 0.000000 0.000000 0.000000 -18.320801 -2.771300 -9.151400 2.332700 9.527100 27.458500 1.709000 5.866000 -27.393999 0.006800 -0.533000 -1.464600 0.000000 0.000000 0.000000 14.516700 6.652300 -4.185000 -1.119600 -6.721600 18.893101 0.151500 -13.655700 -17.508801 -0.703200 5.359900 -14.938000 -2.213400 -0.834400 -6.516700 0.318000 -0.920000 -2.788500 1.504000 -0.417300 0.820200 4.256100 2.332100 -2.583900 0.247500 2.946200 8.185500 -0.551000 1.632300 3.140800 -0.000000 -0.000000 0.000000 -89.811096 -3.891500 22.104200 6.408300 -10.941300 -0.614400 -0.000000 -0.000000 8.755900 14.990100 44.851101 10.694100 -7.125000 0.000000 -0.000000 -38.978802 72.587898 -26.621799 -0.000000 -0.000000 0.000000 92.022003 -0.685700 5.795900 -8.198500 13.874000 -0.999200 0.000000 0.000000 18.805401 -25.935101 32.310001 -14.571200 7.125000 -0.000000 -0.000000 3.338200 5.083500 3.626800 
0.000000 15.999991 0.000000 468.171997 91.172997 472.846985 0.000000 0.000000 0.000000 -18.341700 -2.903500 -8.757800 2.336600 9.534600 27.482500 1.715200 6.085800 -27.562700 0.003100 -0.360600 -0.990800 0.000000 0.000000 0.000000 14.558700 6.263000 -3.976600 -1.110600 -6.695400 18.816200 0.178800 -13.591700 -17.029900 -0.837300 5.837000 -16.312201 -2.732500 -0.968300 -6.383700 0.867200 -1.081700 -2.673200 2.350400 -0.496600 0.890700 3.416100 2.274800 -2.736800 0.229900 2.906200 8.227900 -0.410800 1.584800 3.165300 -0.000000 -0.000000 0.000000 -90.839699 -4.051300 20.221901 6.218600 -10.626300 -0.578900 -0.000000 -0.000000 10.401300 15.586800 44.628700 11.087700 -7.125000 0.000000 -0.000000 -37.828999 72.641701 -25.816700 -0.000000 -0.000000 0.000000 91.070396 -0.570800 6.728900 -8.160100 13.812100 -0.990000 0.000000 0.000000 18.245800 -25.972401 32.408798 -14.632400 7.125000 -0.000000 -0.000000 3.335000 5.194700 3.629100 
0.000000 15.999991 0.000000 466.940002 91.222198 471.497986 0.000000 0.000000 0.000000 -18.305401 -2.937100 -8.627600 2.347100 9.554500 27.545799 1.717900 6.136000 -27.609800 0.002300 -0.312600 -0.858900 0.000000 0.000000 0.000000 14.610100 6.254400 -3.794500 -1.102600 -6.672000 18.747200 0.140900 -13.494200 -17.398399 -0.740300 5.496400 -15.330100 -3.085300 -0.943900 -6.314200 1.142000 -1.035900 -2.601300 2.836400 -0.473200 0.933700 2.982600 2.077800 -2.824000 0.260700 2.659700 8.271100 -0.333900 1.450200 3.183100 -0.000000 0.000000 0.000000 -91.371803 -4.253100 18.878099 6.063500 -10.368100 -0.550600 -0.000000 -0.000000 11.895700 15.135300 44.124001 10.664600 -7.125000 0.000000 -0.000000 -37.162498 72.114502 -24.923100 -0.000000 0.000000 0.000000 90.639297 -0.515700 6.937800 -8.191800 13.863300 -0.997600 0.000000 0.000000 17.695101 -25.886700 32.342701 -14.553800 7.125000 -0.000000 -0.000000 3.371000 5.105400 3.663800 
